<svg xmlns="http://www.w3.org/2000/svg" version="1.1" xmlns:xlink="http://www.w3.org/1999/xlink" xmlns:svgjs="http://svgjs.com/svgjs" width="1600" height="2000" preserveAspectRatio="none" viewBox="0 0 1600 2000"><g mask="url(&quot;#SvgjsMask1001&quot;)" fill="none"><rect width="1600" height="2000" x="0" y="0" fill="rgba(21, 27, 51, 1)"></rect><path d="M1455.656755246011 1446.1182837532663L1545.478587827807 1153.3226102863855 1283.606587667447 1208.985222238123z" fill="rgba(14, 44, 75, 0.4)" class="triangle-float3"></path><path d="M555.18 793.91 a357.53 357.53 0 1 0 715.06 0 a357.53 357.53 0 1 0 -715.06 0z" fill="rgba(14, 44, 75, 0.4)" class="triangle-float2"></path><path d="M1434.176,1608.648C1578.039,1599.123,1687.178,1497.706,1763.487,1375.378C1846.025,1243.064,1922.76,1083.216,1846.958,946.931C1769.849,808.296,1592.746,778.735,1434.176,783.309C1285.121,787.608,1141.635,844.384,1060.676,969.61C972.056,1106.684,937.191,1283.711,1019.556,1424.632C1101.334,1564.549,1272.467,1619.354,1434.176,1608.648" fill="rgba(14, 44, 75, 0.4)" class="triangle-float1"></path><path d="M389.53 1646.31 a474.6 474.6 0 1 0 949.2 0 a474.6 474.6 0 1 0 -949.2 0z" fill="rgba(14, 44, 75, 0.4)" class="triangle-float2"></path><path d="M1434.432,667.243C1533.68,665.63,1617.071,596.854,1662.535,508.617C1704.276,427.606,1691.344,333.803,1647.362,253.987C1601.509,170.775,1529.416,96.854,1434.432,94.669C1336.348,92.413,1252.572,158.638,1203.832,243.785C1155.436,328.331,1146.522,430.694,1193.112,516.248C1241.75,605.564,1332.744,668.896,1434.432,667.243" fill="rgba(14, 44, 75, 0.4)" class="triangle-float2"></path><path d="M411.57 4.04 a319.86 319.86 0 1 0 639.72 0 a319.86 319.86 0 1 0 -639.72 0z" fill="rgba(14, 44, 75, 0.4)" class="triangle-float1"></path><path d="M711.1003335753674 1492.6289517753057L1004.0596731561516 1117.65809650607 629.0888178869159 824.6987569252858 336.1294783061316 1199.6696121945215z" fill="rgba(14, 44, 75, 0.4)" class="triangle-float2"></path><path d="M835.9275659599527 179.98489212624347L1253.3139610079313 165.80768810771667 1065.2880996620852-147.11989508145842z" fill="rgba(14, 44, 75, 0.4)" class="triangle-float2"></path><path d="M381.29335384102717 1890.582943243464L510.6051152207667 1515.034319233004 135.05649121030686 1385.7225578532643 5.74472983056728 1761.2711818637242z" fill="rgba(14, 44, 75, 0.4)" class="triangle-float1"></path><path d="M879.237,2106.456C984.221,2099.026,1063.228,2024.586,1119.052,1935.364C1179.665,1838.489,1231.69,1724.97,1182.445,1621.85C1127.465,1506.721,1006.667,1426.952,879.237,1433.192C759.762,1439.043,682.464,1545.182,623.442,1649.224C565.478,1751.402,515.056,1871.532,572.411,1974.053C630.701,2078.245,760.146,2114.885,879.237,2106.456" fill="rgba(14, 44, 75, 0.4)" class="triangle-float1"></path><path d="M474.25989168687875 1501.4384131957663L716.045679704747 1398.8064352647873 613.4137017737679 1157.020647246919 371.6279137558996 1259.652625177898z" fill="rgba(14, 44, 75, 0.4)" class="triangle-float2"></path><path d="M1659.8480842284798 1652.0469673542882L1785.647347797345 1264.8766448796214 1398.4770253226784 1139.0773813107562 1272.677761753813 1526.247703785423z" fill="rgba(14, 44, 75, 0.4)" class="triangle-float1"></path><path d="M1227.4661025366458 89.61399774639665L982.3741935893428 274.3039983810621 1167.0641942240084 519.3959073283652 1412.1561031713113 334.7059066936997z" fill="rgba(14, 44, 75, 0.4)" class="triangle-float2"></path><path d="M-285.24 733.71 a426.58 426.58 0 1 0 853.16 0 a426.58 426.58 0 1 0 -853.16 0z" fill="rgba(14, 44, 75, 0.4)" class="triangle-float3"></path><path d="M598.3661282720532 1957.8630501747657L886.7555486476394 2080.6015896047934 858.1168484300058 1808.1225582390034z" fill="rgba(14, 44, 75, 0.4)" class="triangle-float3"></path><path d="M735.86,1250.629C863.753,1252.082,974.07,1167.716,1036.326,1055.989C1096.857,947.359,1094.079,819.048,1038.269,707.919C975.335,582.604,876.085,456.512,735.86,457.695C596.846,458.868,503.158,588.025,442.16,712.947C389.43,820.938,389.38,943.826,446.99,1049.294C507.294,1159.694,610.071,1249.2,735.86,1250.629" fill="rgba(14, 44, 75, 0.4)" class="triangle-float3"></path><path d="M1061.16 507.73 a438.15 438.15 0 1 0 876.3 0 a438.15 438.15 0 1 0 -876.3 0z" fill="rgba(14, 44, 75, 0.4)" class="triangle-float3"></path></g><defs><mask id="SvgjsMask1001"><rect width="1600" height="2000" fill="#ffffff"></rect></mask></defs></svg>